<?xml version="1.0" encoding="UTF-8"?>
<svg width="16px" height="16px" viewBox="0 0 16 16" version="1.1" xmlns="http://www.w3.org/2000/svg" xmlns:xlink="http://www.w3.org/1999/xlink">
    <title>Group</title>
    <g id="Website" stroke="none" stroke-width="1" fill="none" fill-rule="evenodd">
        <g id="Desktop-HD-Copy-5" transform="translate(-223.000000, -441.000000)">
            <g id="Group" transform="translate(223.000000, 441.000000)">
                <rect id="Rectangle" fill="#000000" x="0" y="0" width="16" height="16" rx="8"></rect>
                <path d="M7.76195122,5.08292683 C8.73365854,5.08292683 9.47121951,5.46926829 9.97463415,6.24195122 L9.97463415,6.24195122 L9.97463415,5.23512195 L10.9931707,5.23512195 L10.9931707,11.0887805 L9.97463415,11.0887805 L9.97463415,10.0819512 C9.47121951,10.8546341 8.73365854,11.2409756 7.76195122,11.2409756 C6.94243902,11.2409756 6.24,10.9482927 5.66634146,10.3512195 C5.09268293,9.75414634 4.8,9.01658537 4.8,8.16195122 C4.8,7.30731707 5.09268293,6.58146341 5.66634146,5.98439024 C6.24,5.38731707 6.94243902,5.08292683 7.76195122,5.08292683 Z M7.89073171,6.06634146 C7.30536585,6.06634146 6.81365854,6.26536585 6.41560976,6.67512195 C6.01756098,7.07317073 5.81853659,7.56487805 5.81853659,8.16195122 C5.81853659,8.75902439 6.01756098,9.25073171 6.41560976,9.6604878 C6.81365854,10.0585366 7.30536585,10.257561 7.89073171,10.257561 C8.48780488,10.257561 8.9795122,10.0585366 9.37756098,9.6604878 C9.77560976,9.25073171 9.97463415,8.75902439 9.97463415,8.16195122 C9.97463415,7.56487805 9.77560976,7.07317073 9.37756098,6.67512195 C8.9795122,6.26536585 8.48780488,6.06634146 7.89073171,6.06634146 Z" id="Combined-Shape" fill="#FFFFFF" fill-rule="nonzero"></path>
            </g>
        </g>
    </g>
</svg>