<?xml version="1.0" encoding="UTF-8"?>
<svg width="88px" height="183px" viewBox="0 0 88 183" version="1.1" xmlns="http://www.w3.org/2000/svg" xmlns:xlink="http://www.w3.org/1999/xlink">
    <title>Group 3</title>
    <defs>
        <filter id="filter-1">
            <feColorMatrix in="SourceGraphic" type="matrix" values="0 0 0 0 1.000000 0 0 0 0 1.000000 0 0 0 0 1.000000 0 0 0 1.000000 0"></feColorMatrix>
        </filter>
    </defs>
    <g id="Page-1" stroke="none" stroke-width="1" fill="none" fill-rule="evenodd">
        <g id="Story-Copy" transform="translate(-1220.000000, -4028.000000)">
            <g id="Group-3" transform="translate(1220.000000, 4028.000000)">
                <g filter="url(#filter-1)" id="icons8-foot">
                    <g>
                        <path d="M9.25845523,0.0998489351 C2.76876822,1.15833673 -1.18521383,10.0982511 0.319017555,20.0108282 C1.82324894,29.937712 8.26996064,37.0896442 14.7596476,36.0311564 C21.2493347,34.9726723 25.3035998,26.1328822 23.8136935,16.234608 C22.3094621,6.32203088 15.7481422,-0.944332254 9.25845523,0.0998489351 Z M35.3891192,4.10493098 C29.8879268,4.6198701 26.148836,11.3569912 26.9081142,19.0953809 C27.7103715,26.8480773 32.7674563,32.6554444 38.2543236,32.1405053 C43.755516,31.6255662 47.5232607,24.9027517 46.7353286,17.1500554 C45.9617252,9.39736265 40.9046367,3.58999186 35.3891192,4.10493098 Z M57.3938889,12.8016459 C52.9528239,12.7873776 49.3856417,17.2072708 49.3713166,22.7571702 C49.3713166,28.2927667 52.9528239,32.8127878 57.3938889,32.8270908 C61.8492826,32.8127878 65.4164611,28.2927667 65.4164611,22.7571702 C65.4164611,17.2072708 61.8349575,12.7873776 57.3938889,12.8016459 Z M71.4906944,24.8169267 C68.6971192,25.0743981 66.1041102,27.9494739 65.301853,31.7972125 C64.3563374,36.1884998 66.2473723,40.2507973 69.4277473,40.8372549 C72.6224511,41.4094094 75.9460882,38.2625593 76.8772787,33.856969 C77.7941441,29.4513788 75.9460882,25.3747783 72.7513844,24.8169267 C72.3502558,24.7454083 71.8918231,24.7740142 71.4906944,24.8169267 Z M82.4930793,36.1455873 C79.6995041,36.4030587 77.006212,39.2781346 76.1896296,43.1258732 C75.2584391,47.5171605 77.1208201,51.579458 80.3155239,52.1659155 C83.5102277,52.752373 86.8338648,49.7056508 87.7650553,45.3000606 C88.6819207,40.8801674 86.8338648,36.8178699 83.639161,36.2600182 C83.2380324,36.1884998 82.8942079,36.1026748 82.4930793,36.1455873 Z M29.8879268,43.8124587 C15.5189259,43.8124587 7.31011625,51.4364175 7.31011625,64.7533162 C7.31011625,77.312111 14.3155401,83.9061916 20.4900564,89.6992558 C26.8078312,95.6210575 32.2946985,100.698927 32.2946985,111.784423 C32.2946985,119.980536 28.4553246,124.758028 24.0429098,130.2078 C18.9285209,136.53011 13.1121542,143.710648 13.4989577,156.755772 C14.0290196,174.177881 22.8681779,182.960452 39.7442299,182.960452 C54.0702518,182.960452 62.6658649,168.771018 62.6658649,155.039309 C62.6658649,140.320633 66.9206925,130.922995 71.4906944,120.938896 C76.2182835,110.611507 81.1607601,99.9408227 80.6593485,83.6344173 C79.6995041,52.1802185 47.0075239,43.8124587 29.8879268,43.8124587 Z" id="Shape" fill="#000000" fill-rule="nonzero"></path>
                    </g>
                </g>
                <text id="er" font-family="Poppins-Medium, Poppins" font-size="9.94350282" font-weight="400" fill="#ACACAC">
                    <tspan x="59.2103955" y="179.039548">er</tspan>
                </text>
            </g>
        </g>
    </g>
</svg>