<?xml version="1.0" encoding="UTF-8"?>
<svg width="20px" height="20px" viewBox="0 0 20 20" version="1.1" xmlns="http://www.w3.org/2000/svg" xmlns:xlink="http://www.w3.org/1999/xlink">
    <title>instagram</title>
    <g id="Website" stroke="none" stroke-width="1" fill="none" fill-rule="evenodd">
        <g id="Desktop-HD-Copy-5" transform="translate(-1054.000000, -243.000000)" fill="#000000" fill-rule="nonzero">
            <g id="instagram" transform="translate(1054.000000, 243.000000)">
                <path d="M5.55555556,0 C2.49222222,0 0,2.49222222 0,5.55555556 L0,14.4444444 C0,17.5077778 2.49222222,20 5.55555556,20 L14.4444444,20 C17.5077778,20 20,17.5077778 20,14.4444444 L20,5.55555556 C20,2.49222222 17.5077778,0 14.4444444,0 L5.55555556,0 Z M5.55555556,2.22222222 L14.4444444,2.22222222 C16.2822222,2.22222222 17.7777778,3.71777778 17.7777778,5.55555556 L17.7777778,14.4444444 C17.7777778,16.2822222 16.2822222,17.7777778 14.4444444,17.7777778 L5.55555556,17.7777778 C3.71777778,17.7777778 2.22222222,16.2822222 2.22222222,14.4444444 L2.22222222,5.55555556 C2.22222222,3.71777778 3.71777778,2.22222222 5.55555556,2.22222222 Z M15.5555556,3.33333333 C14.9419058,3.33333333 14.4444444,3.83079472 14.4444444,4.44444444 C14.4444444,5.05809417 14.9419058,5.55555556 15.5555556,5.55555556 C16.1692053,5.55555556 16.6666667,5.05809417 16.6666667,4.44444444 C16.6666667,3.83079472 16.1692053,3.33333333 15.5555556,3.33333333 Z M10,4.44444444 C6.93666667,4.44444444 4.44444444,6.93666667 4.44444444,10 C4.44444444,13.0633333 6.93666667,15.5555556 10,15.5555556 C13.0633333,15.5555556 15.5555556,13.0633333 15.5555556,10 C15.5555556,6.93666667 13.0633333,4.44444444 10,4.44444444 Z M10,6.66666667 C11.8377778,6.66666667 13.3333333,8.16222222 13.3333333,10 C13.3333333,11.8377778 11.8377778,13.3333333 10,13.3333333 C8.16222222,13.3333333 6.66666667,11.8377778 6.66666667,10 C6.66666667,8.16222222 8.16222222,6.66666667 10,6.66666667 Z" id="Shape"></path>
            </g>
        </g>
    </g>
</svg>