<?xml version="1.0" encoding="UTF-8"?>
<svg width="120px" height="61px" viewBox="0 0 120 61" version="1.1" xmlns="http://www.w3.org/2000/svg" xmlns:xlink="http://www.w3.org/1999/xlink">
    <title>logo</title>
    <g id="Website" stroke="none" stroke-width="1" fill="none" fill-rule="evenodd">
        <g id="Desktop-HD-Copy-2" transform="translate(-43.000000, -28.000000)" fill-rule="nonzero">
            <g id="logo" transform="translate(43.000000, 28.000000)">
                <g id="Abhishek-Bhatta" fill="#000000">
                    <path d="M7.40487805,21.102439 C9.83414634,21.102439 11.6780488,20.1365854 12.9365854,18.204878 L12.9365854,20.7219512 L15.4829268,20.7219512 L15.4829268,6.08780488 L12.9365854,6.08780488 L12.9365854,8.60487805 C11.6780488,6.67317073 9.83414634,5.70731707 7.40487805,5.70731707 C5.35609756,5.70731707 3.6,6.46829268 2.16585366,7.96097561 C0.731707317,9.45365854 0,11.2682927 0,13.404878 C0,15.5414634 0.731707317,17.3853659 2.16585366,18.8780488 C3.6,20.3707317 5.35609756,21.102439 7.40487805,21.102439 Z M7.72682927,18.6439024 C6.26341463,18.6439024 5.03414634,18.1463415 4.03902439,17.1512195 C3.04390244,16.1268293 2.54634146,14.897561 2.54634146,13.404878 C2.54634146,11.9121951 3.04390244,10.6829268 4.03902439,9.68780488 C5.03414634,8.66341463 6.26341463,8.16585366 7.72682927,8.16585366 C9.2195122,8.16585366 10.4487805,8.66341463 11.4439024,9.68780488 C12.4390244,10.6829268 12.9365854,11.9121951 12.9365854,13.404878 C12.9365854,14.897561 12.4390244,16.1268293 11.4439024,17.1512195 C10.4487805,18.1463415 9.2195122,18.6439024 7.72682927,18.6439024 Z M27.4243902,21.102439 C29.4731707,21.102439 31.2292683,20.3707317 32.6634146,18.8780488 C34.097561,17.3853659 34.8292683,15.5414634 34.8292683,13.404878 C34.8292683,11.2682927 34.097561,9.45365854 32.6634146,7.96097561 C31.2292683,6.46829268 29.4731707,5.70731707 27.4243902,5.70731707 C24.995122,5.70731707 23.1512195,6.67317073 21.8926829,8.60487805 L21.8926829,0.234146341 L19.3463415,0.234146341 L19.3463415,20.7219512 L21.8926829,20.7219512 L21.8926829,18.204878 C23.1512195,20.1365854 24.995122,21.102439 27.4243902,21.102439 Z M27.102439,18.6439024 C25.6097561,18.6439024 24.3804878,18.1463415 23.3853659,17.1512195 C22.3902439,16.1268293 21.8926829,14.897561 21.8926829,13.404878 C21.8926829,11.9121951 22.3902439,10.6829268 23.3853659,9.68780488 C24.3804878,8.66341463 25.6097561,8.16585366 27.102439,8.16585366 C28.5658537,8.16585366 29.795122,8.66341463 30.7902439,9.68780488 C31.7853659,10.6829268 32.2829268,11.9121951 32.2829268,13.404878 C32.2829268,14.897561 31.7853659,16.1268293 30.7902439,17.1512195 C29.795122,18.1463415 28.5658537,18.6439024 27.102439,18.6439024 Z M40.4195122,20.7219512 L40.4195122,12.9658537 C40.4195122,9.68780488 42.1170732,8.13658537 44.6634146,8.13658537 C46.9170732,8.13658537 48.2926829,9.51219512 48.2926829,11.8829268 L48.2926829,20.7219512 L50.8390244,20.7219512 L50.8390244,11.7365854 C50.8390244,8.0195122 48.5853659,5.70731707 45.1609756,5.70731707 C43.0243902,5.70731707 41.4439024,6.52682927 40.4195122,8.19512195 L40.4195122,0.234146341 L37.8731707,0.234146341 L37.8731707,20.7219512 L40.4195122,20.7219512 Z M55.6682927,3.42439024 C56.604878,3.42439024 57.3658537,2.66341463 57.3658537,1.72682927 C57.3658537,0.790243902 56.604878,0 55.6682927,0 C54.702439,0 53.9414634,0.790243902 53.9414634,1.72682927 C53.9414634,2.66341463 54.702439,3.42439024 55.6682927,3.42439024 Z M56.9268293,20.7219512 L56.9268293,6.08780488 L54.3804878,6.08780488 L54.3804878,20.7219512 L56.9268293,20.7219512 Z M65.7073171,21.102439 C67.3170732,21.102439 68.604878,20.6926829 69.6292683,19.902439 C70.6536585,19.1121951 71.1804878,18.0292683 71.1804878,16.7121951 C71.2097561,13.5804878 68.1658537,12.7317073 65.8829268,12.2341463 C64.2731707,11.795122 62.9853659,11.1804878 62.9853659,10.0390244 C62.9853659,8.7804878 64.1560976,8.07804878 65.5902439,8.07804878 C67.1414634,8.07804878 68.195122,8.69268293 68.7219512,9.95121951 L70.8585366,8.75121951 C69.9219512,6.84878049 67.9609756,5.70731707 65.5902439,5.70731707 C64.097561,5.70731707 62.8682927,6.11707317 61.8731707,6.93658537 C60.9073171,7.75609756 60.4097561,8.8097561 60.4097561,10.0682927 C60.4097561,13.1707317 63.395122,13.9317073 65.7073171,14.5463415 C67.3170732,14.9268293 68.604878,15.5707317 68.604878,16.7121951 C68.604878,18.0878049 67.3756098,18.702439 65.7073171,18.702439 C63.9219512,18.702439 62.5463415,17.8243902 62.0780488,16.4195122 L59.8829268,17.6780488 C60.7317073,19.7560976 62.8682927,21.102439 65.7073171,21.102439 Z M76.595122,20.7219512 L76.595122,12.9658537 C76.595122,9.68780488 78.2926829,8.13658537 80.8390244,8.13658537 C83.0926829,8.13658537 84.4682927,9.51219512 84.4682927,11.8829268 L84.4682927,20.7219512 L87.0146341,20.7219512 L87.0146341,11.7365854 C87.0146341,8.0195122 84.7609756,5.70731707 81.3365854,5.70731707 C79.2,5.70731707 77.6195122,6.52682927 76.595122,8.19512195 L76.595122,0.234146341 L74.0487805,0.234146341 L74.0487805,20.7219512 L76.595122,20.7219512 Z M97.5804878,21.102439 C100.44878,21.102439 102.585366,19.9902439 104.019512,17.795122 L101.853659,16.5658537 C100.97561,18 99.5707317,18.702439 97.6390244,18.702439 C94.8585366,18.702439 92.8390244,17.1804878 92.3414634,14.5756098 L104.604878,14.5756098 C104.663415,14.195122 104.692683,13.8146341 104.692683,13.4341463 C104.692683,11.297561 104.019512,9.48292683 102.643902,7.9902439 C101.297561,6.46829268 99.5414634,5.70731707 97.404878,5.70731707 C95.1512195,5.70731707 93.3073171,6.43902439 91.8731707,7.90243902 C90.4390244,9.36585366 89.7365854,11.2097561 89.7365854,13.404878 C89.7365854,15.6292683 90.4682927,17.4731707 91.902439,18.9365854 C93.3658537,20.3707317 95.2682927,21.102439 97.5804878,21.102439 Z M102.117073,12.3512195 L92.3414634,12.3512195 C92.7804878,9.77560976 94.6829268,8.10731707 97.404878,8.10731707 C99.7463415,8.10731707 101.678049,9.57073171 102.117073,12.3512195 Z M110.165854,20.7219512 L110.165854,13.7853659 L116.839024,20.7219512 L120,20.7219512 L112.770732,13.1707317 L119.765854,6.08780488 L116.487805,6.08780488 L110.165854,12.5560976 L110.165854,0.234146341 L107.619512,0.234146341 L107.619512,20.7219512 L110.165854,20.7219512 Z" id="abhishek"></path>
                    <path d="M8.89756098,50.3707317 C10.9463415,50.3707317 12.702439,49.6390244 14.1365854,48.1463415 C15.5707317,46.6536585 16.302439,44.8097561 16.302439,42.6731707 C16.302439,40.5365854 15.5707317,38.7219512 14.1365854,37.2292683 C12.702439,35.7365854 10.9463415,34.9756098 8.89756098,34.9756098 C6.46829268,34.9756098 4.62439024,35.9414634 3.36585366,37.8731707 L3.36585366,29.502439 L0.819512195,29.502439 L0.819512195,49.9902439 L3.36585366,49.9902439 L3.36585366,47.4731707 C4.62439024,49.404878 6.46829268,50.3707317 8.89756098,50.3707317 Z M8.57560976,47.9121951 C7.08292683,47.9121951 5.85365854,47.4146341 4.85853659,46.4195122 C3.86341463,45.395122 3.36585366,44.1658537 3.36585366,42.6731707 C3.36585366,41.1804878 3.86341463,39.9512195 4.85853659,38.9560976 C5.85365854,37.9317073 7.08292683,37.4341463 8.57560976,37.4341463 C10.0390244,37.4341463 11.2682927,37.9317073 12.2634146,38.9560976 C13.2585366,39.9512195 13.7560976,41.1804878 13.7560976,42.6731707 C13.7560976,44.1658537 13.2585366,45.395122 12.2634146,46.4195122 C11.2682927,47.4146341 10.0390244,47.9121951 8.57560976,47.9121951 Z M21.8926829,49.9902439 L21.8926829,42.2341463 C21.8926829,38.9560976 23.5902439,37.404878 26.1365854,37.404878 C28.3902439,37.404878 29.7658537,38.7804878 29.7658537,41.1512195 L29.7658537,49.9902439 L32.3121951,49.9902439 L32.3121951,41.004878 C32.3121951,37.2878049 30.0585366,34.9756098 26.6341463,34.9756098 C24.497561,34.9756098 22.9170732,35.795122 21.8926829,37.4634146 L21.8926829,29.502439 L19.3463415,29.502439 L19.3463415,49.9902439 L21.8926829,49.9902439 Z M42.4390244,50.3707317 C44.8682927,50.3707317 46.7121951,49.404878 47.9707317,47.4731707 L47.9707317,49.9902439 L50.5170732,49.9902439 L50.5170732,35.3560976 L47.9707317,35.3560976 L47.9707317,37.8731707 C46.7121951,35.9414634 44.8682927,34.9756098 42.4390244,34.9756098 C40.3902439,34.9756098 38.6341463,35.7365854 37.2,37.2292683 C35.7658537,38.7219512 35.0341463,40.5365854 35.0341463,42.6731707 C35.0341463,44.8097561 35.7658537,46.6536585 37.2,48.1463415 C38.6341463,49.6390244 40.3902439,50.3707317 42.4390244,50.3707317 Z M42.7609756,47.9121951 C41.297561,47.9121951 40.0682927,47.4146341 39.0731707,46.4195122 C38.0780488,45.395122 37.5804878,44.1658537 37.5804878,42.6731707 C37.5804878,41.1804878 38.0780488,39.9512195 39.0731707,38.9560976 C40.0682927,37.9317073 41.297561,37.4341463 42.7609756,37.4341463 C44.2536585,37.4341463 45.4829268,37.9317073 46.4780488,38.9560976 C47.4731707,39.9512195 47.9707317,41.1804878 47.9707317,42.6731707 C47.9707317,44.1658537 47.4731707,45.395122 46.4780488,46.4195122 C45.4829268,47.4146341 44.2536585,47.9121951 42.7609756,47.9121951 Z M62.3414634,49.9902439 L62.3414634,47.7073171 C59.7365854,47.8243902 58.4487805,48 58.4487805,45.7463415 L58.4487805,37.8146341 L62.3414634,37.8146341 L62.3414634,35.3560976 L58.4487805,35.3560976 L58.4487805,31.2585366 L55.902439,32.0195122 L55.902439,35.3560976 L53.004878,35.3560976 L53.004878,37.8146341 L55.902439,37.8146341 L55.902439,45.7463415 C55.902439,49.3756098 57.8926829,50.5756098 62.3414634,49.9902439 Z M72.5560976,49.9902439 L72.5560976,47.7073171 C69.9512195,47.8243902 68.6634146,48 68.6634146,45.7463415 L68.6634146,37.8146341 L72.5560976,37.8146341 L72.5560976,35.3560976 L68.6634146,35.3560976 L68.6634146,31.2585366 L66.1170732,32.0195122 L66.1170732,35.3560976 L63.2195122,35.3560976 L63.2195122,37.8146341 L66.1170732,37.8146341 L66.1170732,45.7463415 C66.1170732,49.3756098 68.1073171,50.5756098 72.5560976,49.9902439 Z M81.4243902,50.3707317 C83.8536585,50.3707317 85.697561,49.404878 86.9560976,47.4731707 L86.9560976,49.9902439 L89.502439,49.9902439 L89.502439,35.3560976 L86.9560976,35.3560976 L86.9560976,37.8731707 C85.697561,35.9414634 83.8536585,34.9756098 81.4243902,34.9756098 C79.3756098,34.9756098 77.6195122,35.7365854 76.1853659,37.2292683 C74.7512195,38.7219512 74.0195122,40.5365854 74.0195122,42.6731707 C74.0195122,44.8097561 74.7512195,46.6536585 76.1853659,48.1463415 C77.6195122,49.6390244 79.3756098,50.3707317 81.4243902,50.3707317 Z M81.7463415,47.9121951 C80.2829268,47.9121951 79.0536585,47.4146341 78.0585366,46.4195122 C77.0634146,45.395122 76.5658537,44.1658537 76.5658537,42.6731707 C76.5658537,41.1804878 77.0634146,39.9512195 78.0585366,38.9560976 C79.0536585,37.9317073 80.2829268,37.4341463 81.7463415,37.4341463 C83.2390244,37.4341463 84.4682927,37.9317073 85.4634146,38.9560976 C86.4585366,39.9512195 86.9560976,41.1804878 86.9560976,42.6731707 C86.9560976,44.1658537 86.4585366,45.395122 85.4634146,46.4195122 C84.4682927,47.4146341 83.2390244,47.9121951 81.7463415,47.9121951 Z" id="bhatta" fill-opacity="0.5"></path>
                </g>
                <polygon id="_" fill="#00B71F" points="13.0243902 60.8487805 13.0243902 58.3902439 -2.07963728e-15 58.3902439 -2.07963728e-15 60.8487805"></polygon>
            </g>
        </g>
    </g>
</svg>