<?xml version="1.0" encoding="UTF-8"?>
<svg width="18px" height="18px" viewBox="0 0 18 18" version="1.1" xmlns="http://www.w3.org/2000/svg" xmlns:xlink="http://www.w3.org/1999/xlink">
    <title>phone</title>
    <g id="Website" stroke="none" stroke-width="1" fill="none" fill-rule="evenodd">
        <g id="Desktop-HD-Copy-5" transform="translate(-1077.000000, -244.000000)" fill="#000000" fill-rule="nonzero">
            <g id="phone" transform="translate(1077.000000, 244.000000)">
                <path d="M17.023,12.488 C16.393,12.473 15.6,12.436 15.099,12.348 C14.557,12.252 13.905,12.066 13.446,11.923 C13.086,11.811 12.694,11.91 12.427,12.176 L10.21,14.38 C8.678,13.573 7.451,12.633 6.412,11.588 C5.367,10.549 4.427,9.322 3.62,7.79 L5.824,5.572 C6.09,5.305 6.189,4.913 6.077,4.553 C5.935,4.095 5.748,3.443 5.653,2.901 C5.564,2.4 5.528,1.607 5.512,0.977 C5.499,0.432 5.055,0 4.51,0 L1,0 C0.562,0 0,0.328 0,1 C0,5.539 1.84,9.874 4.966,13.034 C8.126,16.16 12.461,18 17,18 C17.672,18 18,17.438 18,17 L18,13.49 C18,12.945 17.568,12.501 17.023,12.488 Z" id="Path"></path>
            </g>
        </g>
    </g>
</svg>